<svg xmlns="http://www.w3.org/2000/svg" viewBox="0 0 128 128">
    <!-- Background (transparent) -->
    <rect width="128" height="128" rx="0" fill="none" />

    <!-- Orbital rings representing the weaving and threading -->
    <g stroke="#FF5722" stroke-width="3.5" fill="none">
        <!-- First elliptical orbit - vertical orientation -->
        <ellipse cx="64" cy="64" rx="16" ry="44" />

        <!-- Second elliptical orbit - horizontal orientation -->
        <ellipse cx="64" cy="64" rx="44" ry="16" />

        <!-- Third elliptical orbit - diagonal NW-SE -->
        <ellipse cx="64" cy="64" rx="34" ry="34" transform="rotate(45, 64, 64)" />

        <!-- Fourth elliptical orbit - diagonal NE-SW -->
        <ellipse cx="64" cy="64" rx="34" ry="34" transform="rotate(135, 64, 64)" />
    </g>

    <!-- Thread intersections/knots -->
    <g fill="#FF5722">
        <!-- Outer nodes on vertical -->
        <circle cx="64" cy="20" r="5" />
        <circle cx="64" cy="108" r="5" />

        <!-- Outer nodes on horizontal -->
        <circle cx="20" cy="64" r="5" />
        <circle cx="108" cy="64" r="5" />

        <!-- Outer nodes on diagonal NW-SE -->
        <circle cx="40" cy="40" r="5" />
        <circle cx="88" cy="88" r="5" />

        <!-- Outer nodes on diagonal NE-SW -->
        <circle cx="40" cy="88" r="5" />
        <circle cx="88" cy="40" r="5" />
    </g>

    <!-- Center loom knot with "L" for Loom -->
    <rect x="48" y="48" width="32" height="32" fill="#FF5722" rx="2" />

    <!-- Stylized "L" in the center -->
    <path d="M58,56 L58,72 L70,72"
        fill="none" stroke="white" stroke-width="3.5"
        stroke-linecap="round" stroke-linejoin="round" />
</svg>